<?xml version="1.0" encoding="UTF-8" standalone="no"?>
<!DOCTYPE svg PUBLIC "-//W3C//DTD SVG 1.1//EN"
 "http://www.w3.org/Graphics/SVG/1.1/DTD/svg11.dtd">
<!-- Generated by graphviz version 7.0.5 (20221223.1930)
 -->
<!-- Title: iop/system Pages: 1 -->
<!--zoomable 196 -->
<svg id="main" version="1.1" xmlns="http://www.w3.org/2000/svg" xmlns:xlink="http://www.w3.org/1999/xlink" xml:space="preserve" onload="init(evt)">
<style type="text/css"><![CDATA[
.edge:hover path { stroke: red; }
.edge:hover polygon { stroke: red; fill: red; }
]]></style>
<script type="text/javascript"><![CDATA[
var edges = document.getElementsByTagName('g');
if (edges && edges.length) {
  for (var i=0;i<edges.length;i++) {
    if (edges[i].id.substr(0,4)=='edge') {
      edges[i].setAttribute('class','edge');
    }
  }
}
]]></script>
        <defs>
                <circle id="rim" cx="0" cy="0" r="7"/>
                <circle id="rim2" cx="0" cy="0" r="3.5"/>
                <g id="zoomPlus">
                        <use xlink:href="#rim" fill="#404040">
                                <set attributeName="fill" to="#808080" begin="zoomplus.mouseover" end="zoomplus.mouseout"/>
                        </use>
                        <path d="M-4,0h8M0,-4v8" fill="none" stroke="white" stroke-width="1.5" pointer-events="none"/>
                </g>
                <g id="zoomMin">
                        <use xlink:href="#rim" fill="#404040">
                                <set attributeName="fill" to="#808080" begin="zoomminus.mouseover" end="zoomminus.mouseout"/>
                        </use>
                        <path d="M-4,0h8" fill="none" stroke="white" stroke-width="1.5" pointer-events="none"/>
                </g>
                <g id="dirArrow">
                        <path fill="none" stroke="white" stroke-width="1.5" d="M0,-3.0v7 M-2.5,-0.5L0,-3.0L2.5,-0.5"/>
                </g>
               <g id="resetDef">
                       <use xlink:href="#rim2" fill="#404040">
                               <set attributeName="fill" to="#808080" begin="reset.mouseover" end="reset.mouseout"/>
                       </use>
               </g>
        </defs>

<script type="text/javascript">
var viewWidth = 917;
var viewHeight = 196;
var sectionId = 'dynsection-0';
</script>
<script xlink:href="svgpan.js"/>
<svg id="graph" class="graph">
<g id="viewport">
<title>iop/system</title>
<g id="clust1" class="cluster">
<title>clusterdir_0981ace215aa2029f526b70c145b9fbe</title>
<g id="a_clust1"><a xlink:href="dir_0981ace215aa2029f526b70c145b9fbe.html" target="_top" xlink:title="iop">
<polygon fill="#deebf9" stroke="#404040" stroke-dasharray="5,2" points="8,-8 8,-180 847,-180 847,-8 8,-8"/>
<text text-anchor="middle" x="427.5" y="-168" font-family="Helvetica,sans-Serif" font-size="10.00">iop</text>
</a>
</g>
</g>
<g id="clust2" class="cluster">
<title>clusterdir_40ac35421bc63b72c26b6c69b1517fd6</title>
<g id="a_clust2"><a xlink:href="dir_40ac35421bc63b72c26b6c69b1517fd6.html" target="_top">
<polygon fill="#deebf9" stroke="#404040" stroke-width="2" points="16,-63 16,-153 839,-153 839,-63 16,-63"/>
</a>
</g>
</g>
<!-- dir_9be0baa3d4a3e9f480a9ee70594037fa -->
<g id="node1" class="node">
<title>dir_9be0baa3d4a3e9f480a9ee70594037fa</title>
<g id="a_node1"><a xlink:href="dir_9be0baa3d4a3e9f480a9ee70594037fa.html" target="_top" xlink:title="kernel">
<polygon fill="#60a2e3" stroke="red" points="367.5,-35 324.5,-35 324.5,-16 367.5,-16 367.5,-35"/>
<text text-anchor="middle" x="346" y="-23" font-family="Helvetica,sans-Serif" font-size="10.00">kernel</text>
</a>
</g>
</g>
<!-- dir_40ac35421bc63b72c26b6c69b1517fd6 -->
<g id="node2" class="node">
<title>dir_40ac35421bc63b72c26b6c69b1517fd6</title>
<text text-anchor="middle" x="807" y="-133" font-family="Helvetica,sans-Serif" font-size="10.00">system</text>
</g>
<!-- dir_249e27ed47f6a2eab7da7b1ddc4f92fd -->
<g id="node3" class="node">
<title>dir_249e27ed47f6a2eab7da7b1ddc4f92fd</title>
<g id="a_node3"><a xlink:href="dir_249e27ed47f6a2eab7da7b1ddc4f92fd.html" target="_top" xlink:title="alloc">
<polygon fill="#60a2e3" stroke="#404040" points="189.5,-145 152.5,-145 152.5,-126 189.5,-126 189.5,-145"/>
<text text-anchor="middle" x="171" y="-133" font-family="Helvetica,sans-Serif" font-size="10.00">alloc</text>
</a>
</g>
</g>
<!-- dir_249e27ed47f6a2eab7da7b1ddc4f92fd&#45;&gt;dir_9be0baa3d4a3e9f480a9ee70594037fa -->
<g id="edge1" class="edge">
<title>dir_249e27ed47f6a2eab7da7b1ddc4f92fd&#45;&gt;dir_9be0baa3d4a3e9f480a9ee70594037fa</title>
<path fill="none" stroke="#63b8ff" d="M189.63,-128.25C221.2,-117.56 282.61,-96.3 291,-90 302.94,-81.03 301.37,-74.41 311,-63 316.63,-56.33 323.17,-49.33 329.06,-43.27"/>
<polygon fill="#63b8ff" stroke="#63b8ff" points="331.43,-45.85 335.98,-36.28 326.46,-40.93 331.43,-45.85"/>
<g id="a_edge1&#45;headlabel"><a xlink:href="dir_000005_000166.html" target="_top" xlink:title="7">
<text text-anchor="middle" x="331.98" y="-46.83" font-family="Helvetica,sans-Serif" font-size="10.00" fill="#63b8ff">7</text>
</a>
</g>
</g>
<!-- dir_d26cb44661e10025c70afdeb6a3fa91f -->
<g id="node4" class="node">
<title>dir_d26cb44661e10025c70afdeb6a3fa91f</title>
<g id="a_node4"><a xlink:href="dir_d26cb44661e10025c70afdeb6a3fa91f.html" target="_top" xlink:title="eesync">
<polygon fill="#60a2e3" stroke="#404040" points="254.5,-145 207.5,-145 207.5,-126 254.5,-126 254.5,-145"/>
<text text-anchor="middle" x="231" y="-133" font-family="Helvetica,sans-Serif" font-size="10.00">eesync</text>
</a>
</g>
</g>
<!-- dir_d26cb44661e10025c70afdeb6a3fa91f&#45;&gt;dir_9be0baa3d4a3e9f480a9ee70594037fa -->
<g id="edge2" class="edge">
<title>dir_d26cb44661e10025c70afdeb6a3fa91f&#45;&gt;dir_9be0baa3d4a3e9f480a9ee70594037fa</title>
<path fill="none" stroke="#63b8ff" d="M254.63,-125.55C271.88,-118.1 294.96,-106.1 311,-90 323.51,-77.45 332.84,-59.5 338.71,-45.88"/>
<polygon fill="#63b8ff" stroke="#63b8ff" points="341.93,-47.27 342.41,-36.69 335.43,-44.66 341.93,-47.27"/>
<g id="a_edge2&#45;headlabel"><a xlink:href="dir_000042_000166.html" target="_top" xlink:title="12">
<text text-anchor="middle" x="343.79" y="-47.76" font-family="Helvetica,sans-Serif" font-size="10.00" fill="#63b8ff">12</text>
</a>
</g>
</g>
<!-- dir_f82a163f83eb0dcdf294ef3743365a67 -->
<g id="node5" class="node">
<title>dir_f82a163f83eb0dcdf294ef3743365a67</title>
<g id="a_node5"><a xlink:href="dir_f82a163f83eb0dcdf294ef3743365a67.html" target="_top" xlink:title="iomanx">
<polygon fill="#60a2e3" stroke="#404040" points="634.5,-145 587.5,-145 587.5,-126 634.5,-126 634.5,-145"/>
<text text-anchor="middle" x="611" y="-133" font-family="Helvetica,sans-Serif" font-size="10.00">iomanx</text>
</a>
</g>
</g>
<!-- dir_f82a163f83eb0dcdf294ef3743365a67&#45;&gt;dir_9be0baa3d4a3e9f480a9ee70594037fa -->
<g id="edge3" class="edge">
<title>dir_f82a163f83eb0dcdf294ef3743365a67&#45;&gt;dir_9be0baa3d4a3e9f480a9ee70594037fa</title>
<path fill="none" stroke="#63b8ff" d="M591.48,-125.5C560.92,-111.53 499.81,-84.03 447,-63 424.31,-53.96 398.39,-44.62 378.49,-37.64"/>
<polygon fill="#63b8ff" stroke="#63b8ff" points="379.85,-34.41 369.25,-34.43 377.55,-41.02 379.85,-34.41"/>
<g id="a_edge3&#45;headlabel"><a xlink:href="dir_000158_000166.html" target="_top" xlink:title="7">
<text text-anchor="middle" x="382.75" y="-29.91" font-family="Helvetica,sans-Serif" font-size="10.00" fill="#63b8ff">7</text>
</a>
</g>
</g>
<!-- dir_bdd9a5d540de89e9fe90efdfc6973a4f -->
<g id="node18" class="node">
<title>dir_bdd9a5d540de89e9fe90efdfc6973a4f</title>
<g id="a_node18"><a xlink:href="dir_bdd9a5d540de89e9fe90efdfc6973a4f.html" target="_top" xlink:title="common">
<polygon fill="#deebf9" stroke="red" points="909,-90 855,-90 855,-71 909,-71 909,-90"/>
<text text-anchor="middle" x="882" y="-78" font-family="Helvetica,sans-Serif" font-size="10.00">common</text>
</a>
</g>
</g>
<!-- dir_f82a163f83eb0dcdf294ef3743365a67&#45;&gt;dir_bdd9a5d540de89e9fe90efdfc6973a4f -->
<g id="edge4" class="edge">
<title>dir_f82a163f83eb0dcdf294ef3743365a67&#45;&gt;dir_bdd9a5d540de89e9fe90efdfc6973a4f</title>
<path fill="none" stroke="#63b8ff" d="M634.74,-128.16C637.85,-127.4 640.99,-126.66 644,-126 731.8,-106.78 754.85,-107.57 843,-90 843.24,-89.95 843.48,-89.9 843.72,-89.86"/>
<polygon fill="#63b8ff" stroke="#63b8ff" points="844.19,-93.33 853.27,-87.88 842.77,-86.48 844.19,-93.33"/>
<g id="a_edge4&#45;headlabel"><a xlink:href="dir_000158_000024.html" target="_top" xlink:title="1">
<text text-anchor="middle" x="842.73" y="-94.04" font-family="Helvetica,sans-Serif" font-size="10.00" fill="#63b8ff">1</text>
</a>
</g>
</g>
<!-- dir_024ed9b5cab300e9b0cec9fa63c26df3 -->
<g id="node6" class="node">
<title>dir_024ed9b5cab300e9b0cec9fa63c26df3</title>
<g id="a_node6"><a xlink:href="dir_024ed9b5cab300e9b0cec9fa63c26df3.html" target="_top" xlink:title="iopmgr">
<polygon fill="#60a2e3" stroke="#404040" points="319,-145 273,-145 273,-126 319,-126 319,-145"/>
<text text-anchor="middle" x="296" y="-133" font-family="Helvetica,sans-Serif" font-size="10.00">iopmgr</text>
</a>
</g>
</g>
<!-- dir_024ed9b5cab300e9b0cec9fa63c26df3&#45;&gt;dir_9be0baa3d4a3e9f480a9ee70594037fa -->
<g id="edge5" class="edge">
<title>dir_024ed9b5cab300e9b0cec9fa63c26df3&#45;&gt;dir_9be0baa3d4a3e9f480a9ee70594037fa</title>
<path fill="none" stroke="#63b8ff" d="M304.8,-125.76C312.8,-117.32 324.34,-103.81 331,-90 337.64,-76.22 341.45,-59.32 343.57,-46.42"/>
<polygon fill="#63b8ff" stroke="#63b8ff" points="347.02,-47 344.95,-36.61 340.09,-46.02 347.02,-47"/>
<g id="a_edge5&#45;headlabel"><a xlink:href="dir_000162_000166.html" target="_top" xlink:title="31">
<text text-anchor="middle" x="349.54" y="-46.96" font-family="Helvetica,sans-Serif" font-size="10.00" fill="#63b8ff">31</text>
</a>
</g>
</g>
<!-- dir_c70e074c247f0fc7ba2b5b627ea24568 -->
<g id="node7" class="node">
<title>dir_c70e074c247f0fc7ba2b5b627ea24568</title>
<g id="a_node7"><a xlink:href="dir_c70e074c247f0fc7ba2b5b627ea24568.html" target="_top" xlink:title="loadfile">
<polygon fill="#60a2e3" stroke="#404040" points="699.5,-145 652.5,-145 652.5,-126 699.5,-126 699.5,-145"/>
<text text-anchor="middle" x="676" y="-133" font-family="Helvetica,sans-Serif" font-size="10.00">loadfile</text>
</a>
</g>
</g>
<!-- dir_c70e074c247f0fc7ba2b5b627ea24568&#45;&gt;dir_9be0baa3d4a3e9f480a9ee70594037fa -->
<g id="edge6" class="edge">
<title>dir_c70e074c247f0fc7ba2b5b627ea24568&#45;&gt;dir_9be0baa3d4a3e9f480a9ee70594037fa</title>
<path fill="none" stroke="#63b8ff" d="M653.95,-125.55C618.34,-111.29 545.83,-82.96 483,-63 447.69,-51.78 406.55,-41.14 378.64,-34.27"/>
<polygon fill="#63b8ff" stroke="#63b8ff" points="379.55,-30.89 369.01,-31.93 377.9,-37.7 379.55,-30.89"/>
<g id="a_edge6&#45;headlabel"><a xlink:href="dir_000179_000166.html" target="_top" xlink:title="12">
<text text-anchor="middle" x="382.25" y="-26.13" font-family="Helvetica,sans-Serif" font-size="10.00" fill="#63b8ff">12</text>
</a>
</g>
</g>
<!-- dir_c70e074c247f0fc7ba2b5b627ea24568&#45;&gt;dir_bdd9a5d540de89e9fe90efdfc6973a4f -->
<g id="edge7" class="edge">
<title>dir_c70e074c247f0fc7ba2b5b627ea24568&#45;&gt;dir_bdd9a5d540de89e9fe90efdfc6973a4f</title>
<path fill="none" stroke="#63b8ff" d="M699.79,-128.37C702.89,-127.57 706.02,-126.77 709,-126 755.48,-114.04 808.98,-100.28 844.03,-91.26"/>
<polygon fill="#63b8ff" stroke="#63b8ff" points="844.45,-94.77 853.27,-88.89 842.71,-87.99 844.45,-94.77"/>
<g id="a_edge7&#45;headlabel"><a xlink:href="dir_000179_000024.html" target="_top" xlink:title="1">
<text text-anchor="middle" x="843.15" y="-95.54" font-family="Helvetica,sans-Serif" font-size="10.00" fill="#63b8ff">1</text>
</a>
</g>
</g>
<!-- dir_37a0b5ec4566a4318c90e018cb9457b6 -->
<g id="node8" class="node">
<title>dir_37a0b5ec4566a4318c90e018cb9457b6</title>
<g id="a_node8"><a xlink:href="dir_37a0b5ec4566a4318c90e018cb9457b6.html" target="_top" xlink:title="mtapman">
<polygon fill="#60a2e3" stroke="#404040" points="394.5,-145 337.5,-145 337.5,-126 394.5,-126 394.5,-145"/>
<text text-anchor="middle" x="366" y="-133" font-family="Helvetica,sans-Serif" font-size="10.00">mtapman</text>
</a>
</g>
</g>
<!-- dir_37a0b5ec4566a4318c90e018cb9457b6&#45;&gt;dir_9be0baa3d4a3e9f480a9ee70594037fa -->
<g id="edge8" class="edge">
<title>dir_37a0b5ec4566a4318c90e018cb9457b6&#45;&gt;dir_9be0baa3d4a3e9f480a9ee70594037fa</title>
<path fill="none" stroke="#63b8ff" d="M364.36,-125.66C361.18,-108.5 354.1,-70.26 349.72,-46.6"/>
<polygon fill="#63b8ff" stroke="#63b8ff" points="353.2,-46.14 347.93,-36.95 346.31,-47.42 353.2,-46.14"/>
<g id="a_edge8&#45;headlabel"><a xlink:href="dir_000191_000166.html" target="_top" xlink:title="17">
<text text-anchor="middle" x="356.37" y="-45.17" font-family="Helvetica,sans-Serif" font-size="10.00" fill="#63b8ff">17</text>
</a>
</g>
</g>
<!-- dir_cb26f304a37e679cc21ccc4e4a07be73 -->
<g id="node9" class="node">
<title>dir_cb26f304a37e679cc21ccc4e4a07be73</title>
<g id="a_node9"><a xlink:href="dir_cb26f304a37e679cc21ccc4e4a07be73.html" target="_top" xlink:title="padman">
<polygon fill="#60a2e3" stroke="#404040" points="134.5,-145 83.5,-145 83.5,-126 134.5,-126 134.5,-145"/>
<text text-anchor="middle" x="109" y="-133" font-family="Helvetica,sans-Serif" font-size="10.00">padman</text>
</a>
</g>
</g>
<!-- dir_cb26f304a37e679cc21ccc4e4a07be73&#45;&gt;dir_9be0baa3d4a3e9f480a9ee70594037fa -->
<g id="edge9" class="edge">
<title>dir_cb26f304a37e679cc21ccc4e4a07be73&#45;&gt;dir_9be0baa3d4a3e9f480a9ee70594037fa</title>
<path fill="none" stroke="#63b8ff" d="M134.96,-127.84C179.27,-116.41 265.3,-93.9 271,-90 283.32,-81.56 280.17,-73.28 291,-63 299.63,-54.8 310.32,-47.24 319.97,-41.16"/>
<polygon fill="#63b8ff" stroke="#63b8ff" points="321.48,-44.34 328.23,-36.17 317.86,-38.35 321.48,-44.34"/>
<g id="a_edge9&#45;headlabel"><a xlink:href="dir_000207_000166.html" target="_top" xlink:title="43">
<text text-anchor="middle" x="321.17" y="-45.34" font-family="Helvetica,sans-Serif" font-size="10.00" fill="#63b8ff">43</text>
</a>
</g>
</g>
<!-- dir_1fd4d135da32a6b9ad91946f648cae84 -->
<g id="node14" class="node">
<title>dir_1fd4d135da32a6b9ad91946f648cae84</title>
<g id="a_node14"><a xlink:href="dir_1fd4d135da32a6b9ad91946f648cae84.html" target="_top" xlink:title="sio2man">
<polygon fill="#60a2e3" stroke="#404040" points="166.5,-90 113.5,-90 113.5,-71 166.5,-71 166.5,-90"/>
<text text-anchor="middle" x="140" y="-78" font-family="Helvetica,sans-Serif" font-size="10.00">sio2man</text>
</a>
</g>
</g>
<!-- dir_cb26f304a37e679cc21ccc4e4a07be73&#45;&gt;dir_1fd4d135da32a6b9ad91946f648cae84 -->
<g id="edge10" class="edge">
<title>dir_cb26f304a37e679cc21ccc4e4a07be73&#45;&gt;dir_1fd4d135da32a6b9ad91946f648cae84</title>
<path fill="none" stroke="#63b8ff" d="M114.12,-125.75C118.18,-118.81 123.99,-108.86 129.09,-100.16"/>
<polygon fill="#63b8ff" stroke="#63b8ff" points="131.98,-102.15 134.01,-91.75 125.94,-98.61 131.98,-102.15"/>
<g id="a_edge10&#45;headlabel"><a xlink:href="dir_000207_000230.html" target="_top" xlink:title="2">
<text text-anchor="middle" x="133.38" y="-102.88" font-family="Helvetica,sans-Serif" font-size="10.00" fill="#63b8ff">2</text>
</a>
</g>
</g>
<!-- dir_fe7329d8b89241d59f89f45fd75d2e77 -->
<g id="node10" class="node">
<title>dir_fe7329d8b89241d59f89f45fd75d2e77</title>
<g id="a_node10"><a xlink:href="dir_fe7329d8b89241d59f89f45fd75d2e77.html" target="_top" xlink:title="rmman">
<polygon fill="#60a2e3" stroke="#404040" points="459.5,-145 412.5,-145 412.5,-126 459.5,-126 459.5,-145"/>
<text text-anchor="middle" x="436" y="-133" font-family="Helvetica,sans-Serif" font-size="10.00">rmman</text>
</a>
</g>
</g>
<!-- dir_fe7329d8b89241d59f89f45fd75d2e77&#45;&gt;dir_9be0baa3d4a3e9f480a9ee70594037fa -->
<g id="edge11" class="edge">
<title>dir_fe7329d8b89241d59f89f45fd75d2e77&#45;&gt;dir_9be0baa3d4a3e9f480a9ee70594037fa</title>
<path fill="none" stroke="#63b8ff" d="M428.63,-125.66C413.8,-107.86 380.09,-67.41 360.62,-44.04"/>
<polygon fill="#63b8ff" stroke="#63b8ff" points="363.53,-42.06 354.44,-36.62 358.15,-46.55 363.53,-42.06"/>
<g id="a_edge11&#45;headlabel"><a xlink:href="dir_000217_000166.html" target="_top" xlink:title="17">
<text text-anchor="middle" x="367.04" y="-39.35" font-family="Helvetica,sans-Serif" font-size="10.00" fill="#63b8ff">17</text>
</a>
</g>
</g>
<!-- dir_47d6ec5167f7ee6ef257538cbd6ee8bb -->
<g id="node11" class="node">
<title>dir_47d6ec5167f7ee6ef257538cbd6ee8bb</title>
<g id="a_node11"><a xlink:href="dir_47d6ec5167f7ee6ef257538cbd6ee8bb.html" target="_top" xlink:title="rsio2man">
<polygon fill="#60a2e3" stroke="#404040" points="247,-90 191,-90 191,-71 247,-71 247,-90"/>
<text text-anchor="middle" x="219" y="-78" font-family="Helvetica,sans-Serif" font-size="10.00">rsio2man</text>
</a>
</g>
</g>
<!-- dir_fe7329d8b89241d59f89f45fd75d2e77&#45;&gt;dir_47d6ec5167f7ee6ef257538cbd6ee8bb -->
<g id="edge13" class="edge">
<title>dir_fe7329d8b89241d59f89f45fd75d2e77&#45;&gt;dir_47d6ec5167f7ee6ef257538cbd6ee8bb</title>
<path fill="none" stroke="#63b8ff" d="M412.25,-128.11C409.47,-127.39 406.68,-126.67 404,-126 339.81,-109.93 320.75,-107.23 258.13,-91.76"/>
<polygon fill="#63b8ff" stroke="#63b8ff" points="259.27,-88.44 248.73,-89.42 257.58,-95.23 259.27,-88.44"/>
<g id="a_edge13&#45;headlabel"><a xlink:href="dir_000217_000220.html" target="_top" xlink:title="2">
<text text-anchor="middle" x="261.98" y="-83.68" font-family="Helvetica,sans-Serif" font-size="10.00" fill="#63b8ff">2</text>
</a>
</g>
</g>
<!-- dir_fe7329d8b89241d59f89f45fd75d2e77&#45;&gt;dir_bdd9a5d540de89e9fe90efdfc6973a4f -->
<g id="edge12" class="edge">
<title>dir_fe7329d8b89241d59f89f45fd75d2e77&#45;&gt;dir_bdd9a5d540de89e9fe90efdfc6973a4f</title>
<path fill="none" stroke="#63b8ff" d="M459.7,-127.92C462.81,-127.2 465.97,-126.53 469,-126 633.47,-97.09 678.02,-115.83 843,-90 843.24,-89.96 843.48,-89.92 843.72,-89.89"/>
<polygon fill="#63b8ff" stroke="#63b8ff" points="844.11,-93.37 853.31,-88.13 842.85,-86.49 844.11,-93.37"/>
<g id="a_edge12&#45;headlabel"><a xlink:href="dir_000217_000024.html" target="_top" xlink:title="1">
<text text-anchor="middle" x="842.57" y="-94.04" font-family="Helvetica,sans-Serif" font-size="10.00" fill="#63b8ff">1</text>
</a>
</g>
</g>
<!-- dir_47d6ec5167f7ee6ef257538cbd6ee8bb&#45;&gt;dir_9be0baa3d4a3e9f480a9ee70594037fa -->
<g id="edge14" class="edge">
<title>dir_47d6ec5167f7ee6ef257538cbd6ee8bb&#45;&gt;dir_9be0baa3d4a3e9f480a9ee70594037fa</title>
<path fill="none" stroke="#63b8ff" d="M235.44,-70.59C240.39,-68.02 245.87,-65.3 251,-63 271.43,-53.84 294.91,-44.81 313.41,-38.02"/>
<polygon fill="#63b8ff" stroke="#63b8ff" points="314.59,-41.32 322.8,-34.62 312.2,-34.73 314.59,-41.32"/>
<g id="a_edge14&#45;headlabel"><a xlink:href="dir_000220_000166.html" target="_top" xlink:title="1">
<text text-anchor="middle" x="313.6" y="-42.19" font-family="Helvetica,sans-Serif" font-size="10.00" fill="#63b8ff">1</text>
</a>
</g>
</g>
<!-- dir_4bae4802256ab45fc18d13b3c6375605 -->
<g id="node12" class="node">
<title>dir_4bae4802256ab45fc18d13b3c6375605</title>
<g id="a_node12"><a xlink:href="dir_4bae4802256ab45fc18d13b3c6375605.html" target="_top" xlink:title="sbusintr">
<polygon fill="#60a2e3" stroke="#404040" points="82.5,-90 31.5,-90 31.5,-71 82.5,-71 82.5,-90"/>
<text text-anchor="middle" x="57" y="-78" font-family="Helvetica,sans-Serif" font-size="10.00">sbusintr</text>
</a>
</g>
</g>
<!-- dir_4bae4802256ab45fc18d13b3c6375605&#45;&gt;dir_9be0baa3d4a3e9f480a9ee70594037fa -->
<g id="edge15" class="edge">
<title>dir_4bae4802256ab45fc18d13b3c6375605&#45;&gt;dir_9be0baa3d4a3e9f480a9ee70594037fa</title>
<path fill="none" stroke="#63b8ff" d="M80.18,-70.58C87.98,-67.84 96.78,-65.02 105,-63 178.16,-45.04 266.1,-34.41 312.89,-29.6"/>
<polygon fill="#63b8ff" stroke="#63b8ff" points="313.03,-33.1 322.63,-28.62 312.33,-26.14 313.03,-33.1"/>
<g id="a_edge15&#45;headlabel"><a xlink:href="dir_000222_000166.html" target="_top" xlink:title="10">
<text text-anchor="middle" x="311.24" y="-33.63" font-family="Helvetica,sans-Serif" font-size="10.00" fill="#63b8ff">10</text>
</a>
</g>
</g>
<!-- dir_c3fae06f71c3e401160299d109ef6df7 -->
<g id="node13" class="node">
<title>dir_c3fae06f71c3e401160299d109ef6df7</title>
<g id="a_node13"><a xlink:href="dir_c3fae06f71c3e401160299d109ef6df7.html" target="_top" xlink:title="siftoo">
<polygon fill="#60a2e3" stroke="#404040" points="65.5,-145 24.5,-145 24.5,-126 65.5,-126 65.5,-145"/>
<text text-anchor="middle" x="45" y="-133" font-family="Helvetica,sans-Serif" font-size="10.00">siftoo</text>
</a>
</g>
</g>
<!-- dir_c3fae06f71c3e401160299d109ef6df7&#45;&gt;dir_9be0baa3d4a3e9f480a9ee70594037fa -->
<g id="edge16" class="edge">
<title>dir_c3fae06f71c3e401160299d109ef6df7&#45;&gt;dir_9be0baa3d4a3e9f480a9ee70594037fa</title>
<path fill="none" stroke="#63b8ff" d="M65.92,-128.34C68.96,-127.52 72.05,-126.71 75,-126 154.74,-106.81 189.73,-138.32 256,-90 267.09,-81.91 261.03,-72.44 271,-63 283.06,-51.57 299.38,-43.06 313.72,-37.14"/>
<polygon fill="#63b8ff" stroke="#63b8ff" points="314.7,-40.51 322.77,-33.65 312.18,-33.98 314.7,-40.51"/>
<g id="a_edge16&#45;headlabel"><a xlink:href="dir_000228_000166.html" target="_top" xlink:title="13">
<text text-anchor="middle" x="313.77" y="-41.41" font-family="Helvetica,sans-Serif" font-size="10.00" fill="#63b8ff">13</text>
</a>
</g>
</g>
<!-- dir_c3fae06f71c3e401160299d109ef6df7&#45;&gt;dir_4bae4802256ab45fc18d13b3c6375605 -->
<g id="edge17" class="edge">
<title>dir_c3fae06f71c3e401160299d109ef6df7&#45;&gt;dir_4bae4802256ab45fc18d13b3c6375605</title>
<path fill="none" stroke="#63b8ff" d="M46.98,-125.75C48.47,-119.19 50.56,-109.95 52.45,-101.6"/>
<polygon fill="#63b8ff" stroke="#63b8ff" points="55.85,-102.44 54.64,-91.92 49.02,-100.9 55.85,-102.44"/>
<g id="a_edge17&#45;headlabel"><a xlink:href="dir_000228_000222.html" target="_top" xlink:title="3">
<text text-anchor="middle" x="58.16" y="-102.6" font-family="Helvetica,sans-Serif" font-size="10.00" fill="#63b8ff">3</text>
</a>
</g>
</g>
<!-- dir_1fd4d135da32a6b9ad91946f648cae84&#45;&gt;dir_9be0baa3d4a3e9f480a9ee70594037fa -->
<g id="edge18" class="edge">
<title>dir_1fd4d135da32a6b9ad91946f648cae84&#45;&gt;dir_9be0baa3d4a3e9f480a9ee70594037fa</title>
<path fill="none" stroke="#63b8ff" d="M160.71,-70.63C167.42,-67.95 174.96,-65.15 182,-63 226.79,-49.31 279.91,-38.43 313.29,-32.23"/>
<polygon fill="#63b8ff" stroke="#63b8ff" points="313.53,-35.74 322.74,-30.5 312.28,-28.85 313.53,-35.74"/>
<g id="a_edge18&#45;headlabel"><a xlink:href="dir_000230_000166.html" target="_top" xlink:title="19">
<text text-anchor="middle" x="312" y="-36.41" font-family="Helvetica,sans-Serif" font-size="10.00" fill="#63b8ff">19</text>
</a>
</g>
</g>
<!-- dir_952a988346c879bc3b2834e2377036db -->
<g id="node15" class="node">
<title>dir_952a988346c879bc3b2834e2377036db</title>
<g id="a_node15"><a xlink:href="dir_952a988346c879bc3b2834e2377036db.html" target="_top" xlink:title="stdio">
<polygon fill="#60a2e3" stroke="#404040" points="516,-145 478,-145 478,-126 516,-126 516,-145"/>
<text text-anchor="middle" x="497" y="-133" font-family="Helvetica,sans-Serif" font-size="10.00">stdio</text>
</a>
</g>
</g>
<!-- dir_952a988346c879bc3b2834e2377036db&#45;&gt;dir_9be0baa3d4a3e9f480a9ee70594037fa -->
<g id="edge19" class="edge">
<title>dir_952a988346c879bc3b2834e2377036db&#45;&gt;dir_9be0baa3d4a3e9f480a9ee70594037fa</title>
<path fill="none" stroke="#63b8ff" d="M484.64,-125.66C458.98,-107.31 399.64,-64.87 367.55,-41.91"/>
<polygon fill="#63b8ff" stroke="#63b8ff" points="369.93,-39.31 359.76,-36.34 365.86,-45.01 369.93,-39.31"/>
<g id="a_edge19&#45;headlabel"><a xlink:href="dir_000364_000166.html" target="_top" xlink:title="4">
<text text-anchor="middle" x="373.27" y="-35.71" font-family="Helvetica,sans-Serif" font-size="10.00" fill="#63b8ff">4</text>
</a>
</g>
</g>
<!-- dir_1bd32d4ef826aeeda00870843eb45c97 -->
<g id="node16" class="node">
<title>dir_1bd32d4ef826aeeda00870843eb45c97</title>
<g id="a_node16"><a xlink:href="dir_1bd32d4ef826aeeda00870843eb45c97.html" target="_top" xlink:title="sysclib">
<polygon fill="#60a2e3" stroke="#404040" points="764.5,-145 717.5,-145 717.5,-126 764.5,-126 764.5,-145"/>
<text text-anchor="middle" x="741" y="-133" font-family="Helvetica,sans-Serif" font-size="10.00">sysclib</text>
</a>
</g>
</g>
<!-- dir_1bd32d4ef826aeeda00870843eb45c97&#45;&gt;dir_9be0baa3d4a3e9f480a9ee70594037fa -->
<g id="edge20" class="edge">
<title>dir_1bd32d4ef826aeeda00870843eb45c97&#45;&gt;dir_9be0baa3d4a3e9f480a9ee70594037fa</title>
<path fill="none" stroke="#63b8ff" d="M717.31,-125.63C677.85,-111.09 595.99,-81.92 525,-63 474.75,-49.61 415.44,-38.4 379.29,-32.07"/>
<polygon fill="#63b8ff" stroke="#63b8ff" points="379.9,-28.62 369.45,-30.37 378.71,-35.52 379.9,-28.62"/>
<g id="a_edge20&#45;headlabel"><a xlink:href="dir_000369_000166.html" target="_top" xlink:title="78">
<text text-anchor="middle" x="382.44" y="-23.68" font-family="Helvetica,sans-Serif" font-size="10.00" fill="#63b8ff">78</text>
</a>
</g>
</g>
<!-- dir_1bd32d4ef826aeeda00870843eb45c97&#45;&gt;dir_bdd9a5d540de89e9fe90efdfc6973a4f -->
<g id="edge21" class="edge">
<title>dir_1bd32d4ef826aeeda00870843eb45c97&#45;&gt;dir_bdd9a5d540de89e9fe90efdfc6973a4f</title>
<path fill="none" stroke="#63b8ff" d="M764.92,-125.51C787.64,-116.97 822.05,-104.03 847.69,-94.4"/>
<polygon fill="#63b8ff" stroke="#63b8ff" points="848.89,-97.69 857.02,-90.89 846.43,-91.13 848.89,-97.69"/>
<g id="a_edge21&#45;headlabel"><a xlink:href="dir_000369_000024.html" target="_top" xlink:title="1">
<text text-anchor="middle" x="847.94" y="-98.58" font-family="Helvetica,sans-Serif" font-size="10.00" fill="#63b8ff">1</text>
</a>
</g>
</g>
<!-- dir_ba5b6e33a21a738024e426bc2a53820a -->
<g id="node17" class="node">
<title>dir_ba5b6e33a21a738024e426bc2a53820a</title>
<g id="a_node17"><a xlink:href="dir_ba5b6e33a21a738024e426bc2a53820a.html" target="_top" xlink:title="udnl">
<polygon fill="#60a2e3" stroke="#404040" points="569.5,-145 534.5,-145 534.5,-126 569.5,-126 569.5,-145"/>
<text text-anchor="middle" x="552" y="-133" font-family="Helvetica,sans-Serif" font-size="10.00">udnl</text>
</a>
</g>
</g>
<!-- dir_ba5b6e33a21a738024e426bc2a53820a&#45;&gt;dir_9be0baa3d4a3e9f480a9ee70594037fa -->
<g id="edge22" class="edge">
<title>dir_ba5b6e33a21a738024e426bc2a53820a&#45;&gt;dir_9be0baa3d4a3e9f480a9ee70594037fa</title>
<path fill="none" stroke="#63b8ff" d="M535.7,-125.54C510.71,-111.84 461.35,-84.97 419,-63 404.31,-55.38 387.83,-47.12 374.25,-40.38"/>
<polygon fill="#63b8ff" stroke="#63b8ff" points="375.95,-37.32 365.43,-36.02 372.85,-43.59 375.95,-37.32"/>
<g id="a_edge22&#45;headlabel"><a xlink:href="dir_000380_000166.html" target="_top" xlink:title="17">
<text text-anchor="middle" x="379.07" y="-33.19" font-family="Helvetica,sans-Serif" font-size="10.00" fill="#63b8ff">17</text>
</a>
</g>
</g>
</g>
</svg>
        <g id="navigator" transform="translate(0 0)" fill="#404254">
                <rect fill="#f2f5e9" fill-opacity="0.5" stroke="#606060" stroke-width=".5" x="0" y="0" width="60" height="60"/>
                <use id="zoomplus" xlink:href="#zoomPlus" x="17" y="9" onmousedown="handleZoom(evt,'in')"/>
                <use id="zoomminus" xlink:href="#zoomMin" x="42" y="9" onmousedown="handleZoom(evt,'out')"/>
                <use id="reset" xlink:href="#resetDef" x="30" y="36" onmousedown="handleReset()"/>
                <g id="arrowUp" xlink:href="#dirArrow" transform="translate(30 24)" onmousedown="handlePan(0,-1)">
                  <use xlink:href="#rim" fill="#404040">
                        <set attributeName="fill" to="#808080" begin="arrowUp.mouseover" end="arrowUp.mouseout"/>
                  </use>
                  <path fill="none" stroke="white" stroke-width="1.5" d="M0,-3.0v7 M-2.5,-0.5L0,-3.0L2.5,-0.5"/>
                </g>
                <g id="arrowRight" xlink:href="#dirArrow" transform="rotate(90) translate(36 -43)" onmousedown="handlePan(1,0)">
                  <use xlink:href="#rim" fill="#404040">
                        <set attributeName="fill" to="#808080" begin="arrowRight.mouseover" end="arrowRight.mouseout"/>
                  </use>
                  <path fill="none" stroke="white" stroke-width="1.5" d="M0,-3.0v7 M-2.5,-0.5L0,-3.0L2.5,-0.5"/>
                </g>
                <g id="arrowDown" xlink:href="#dirArrow" transform="rotate(180) translate(-30 -48)" onmousedown="handlePan(0,1)">
                  <use xlink:href="#rim" fill="#404040">
                        <set attributeName="fill" to="#808080" begin="arrowDown.mouseover" end="arrowDown.mouseout"/>
                  </use>
                  <path fill="none" stroke="white" stroke-width="1.5" d="M0,-3.0v7 M-2.5,-0.5L0,-3.0L2.5,-0.5"/>
                </g>
                <g id="arrowLeft" xlink:href="#dirArrow" transform="rotate(270) translate(-36 17)" onmousedown="handlePan(-1,0)">
                  <use xlink:href="#rim" fill="#404040">
                        <set attributeName="fill" to="#808080" begin="arrowLeft.mouseover" end="arrowLeft.mouseout"/>
                  </use>
                  <path fill="none" stroke="white" stroke-width="1.5" d="M0,-3.0v7 M-2.5,-0.5L0,-3.0L2.5,-0.5"/>
                </g>
        </g>
        <svg viewBox="0 0 15 15" width="100%" height="30px" preserveAspectRatio="xMaxYMin meet">
         <g id="arrow_out" transform="scale(0.3 0.3)">
          <a xlink:href="dir_40ac35421bc63b72c26b6c69b1517fd6_dep_org.svg" target="_base">
           <rect id="button" ry="5" rx="5" y="6" x="6" height="38" width="38"
                fill="#f2f5e9" fill-opacity="0.5" stroke="#606060" stroke-width="1.0"/>
           <path id="arrow"
             d="M 11.500037,31.436501 C 11.940474,20.09759 22.043105,11.32322 32.158766,21.979434 L 37.068811,17.246167 C 37.068811,17.246167 37.088388,32 37.088388,32 L 22.160133,31.978069 C 22.160133,31.978069 26.997745,27.140456 26.997745,27.140456 C 18.528582,18.264221 13.291696,25.230495 11.500037,31.436501 z"
             style="fill:#404040;"/>
          </a>
         </g>
        </svg>
</svg>
