<?xml version="1.0" encoding="UTF-8" standalone="no"?>
<!DOCTYPE svg PUBLIC "-//W3C//DTD SVG 1.1//EN"
 "http://www.w3.org/Graphics/SVG/1.1/DTD/svg11.dtd">
<!-- Generated by graphviz version 7.0.5 (20221223.1930)
 -->
<!-- Title: iop/kernel/include/timrman.h Pages: 1 -->
<svg width="881pt" height="170pt"
 viewBox="0.00 0.00 880.50 170.00" xmlns="http://www.w3.org/2000/svg" xmlns:xlink="http://www.w3.org/1999/xlink">
<g id="graph0" class="graph" transform="scale(1 1) rotate(0) translate(4 166)">
<title>iop/kernel/include/timrman.h</title>
<!-- Node1 -->
<g id="node1" class="node">
<title>Node1</title>
<g id="a_node1"><a xlink:title=" ">
<polygon fill="#999999" stroke="#666666" points="316,-162 224,-162 224,-132 316,-132 316,-162"/>
<text text-anchor="start" x="232" y="-150" font-family="Helvetica,sans-Serif" font-size="10.00">iop/kernel/include</text>
<text text-anchor="middle" x="270" y="-139" font-family="Helvetica,sans-Serif" font-size="10.00">/timrman.h</text>
</a>
</g>
</g>
<!-- Node2 -->
<g id="node2" class="node">
<title>Node2</title>
<g id="a_node2"><a xlink:href="dvripl_8c_source.html" target="_top" xlink:title=" ">
<polygon fill="white" stroke="#666666" points="94,-96 0,-96 0,-66 94,-66 94,-96"/>
<text text-anchor="start" x="8" y="-84" font-family="Helvetica,sans-Serif" font-size="10.00">iop/dvrp/dvripl/src</text>
<text text-anchor="middle" x="47" y="-73" font-family="Helvetica,sans-Serif" font-size="10.00">/dvripl.c</text>
</a>
</g>
</g>
<!-- Node1&#45;&gt;Node2 -->
<g id="edge1" class="edge">
<title>Node1&#45;&gt;Node2</title>
<path fill="none" stroke="#63b8ff" d="M212.48,-129.49C175.75,-118.95 128.71,-105.45 94.18,-95.54"/>
<polygon fill="#63b8ff" stroke="#63b8ff" points="211.49,-132.85 222.07,-132.24 213.42,-126.12 211.49,-132.85"/>
</g>
<!-- Node3 -->
<g id="node3" class="node">
<title>Node3</title>
<g id="a_node3"><a xlink:href="iop_2dvrp_2dvripl_2src_2irx__imports_8h_source.html" target="_top" xlink:title=" ">
<polygon fill="white" stroke="#666666" points="206,-96 112,-96 112,-66 206,-66 206,-96"/>
<text text-anchor="start" x="120" y="-84" font-family="Helvetica,sans-Serif" font-size="10.00">iop/dvrp/dvripl/src</text>
<text text-anchor="middle" x="159" y="-73" font-family="Helvetica,sans-Serif" font-size="10.00">/irx_imports.h</text>
</a>
</g>
</g>
<!-- Node1&#45;&gt;Node3 -->
<g id="edge2" class="edge">
<title>Node1&#45;&gt;Node3</title>
<path fill="none" stroke="#63b8ff" d="M235.16,-125.91C218.5,-116.31 198.95,-105.03 183.83,-96.31"/>
<polygon fill="#63b8ff" stroke="#63b8ff" points="233.37,-128.92 243.78,-130.88 236.86,-122.85 233.37,-128.92"/>
</g>
<!-- Node4 -->
<g id="node4" class="node">
<title>Node4</title>
<g id="a_node4"><a xlink:href="xtimrman_8h.html" target="_top" xlink:title=" ">
<polygon fill="white" stroke="#666666" points="316,-96 224,-96 224,-66 316,-66 316,-96"/>
<text text-anchor="start" x="232" y="-84" font-family="Helvetica,sans-Serif" font-size="10.00">iop/kernel/include</text>
<text text-anchor="middle" x="270" y="-73" font-family="Helvetica,sans-Serif" font-size="10.00">/xtimrman.h</text>
</a>
</g>
</g>
<!-- Node1&#45;&gt;Node4 -->
<g id="edge3" class="edge">
<title>Node1&#45;&gt;Node4</title>
<path fill="none" stroke="#63b8ff" d="M270,-120.39C270,-112.13 270,-103.28 270,-96.16"/>
<polygon fill="#63b8ff" stroke="#63b8ff" points="266.5,-120.28 270,-130.28 273.5,-120.28 266.5,-120.28"/>
</g>
<!-- Node5 -->
<g id="node5" class="node">
<title>Node5</title>
<g id="a_node5"><a xlink:href="iop_2memorycard_2mcman_2src_2irx__imports_8h_source.html" target="_top" xlink:title=" ">
<polygon fill="white" stroke="#666666" points="455.5,-96 334.5,-96 334.5,-66 455.5,-66 455.5,-96"/>
<text text-anchor="start" x="342.5" y="-84" font-family="Helvetica,sans-Serif" font-size="10.00">iop/memorycard/mcman</text>
<text text-anchor="middle" x="395" y="-73" font-family="Helvetica,sans-Serif" font-size="10.00">/src/irx_imports.h</text>
</a>
</g>
</g>
<!-- Node1&#45;&gt;Node5 -->
<g id="edge4" class="edge">
<title>Node1&#45;&gt;Node5</title>
<path fill="none" stroke="#63b8ff" d="M308.18,-126.45C327.16,-116.73 349.69,-105.2 367.04,-96.31"/>
<polygon fill="#63b8ff" stroke="#63b8ff" points="306.71,-123.27 299.4,-130.95 309.9,-129.51 306.71,-123.27"/>
</g>
<!-- Node6 -->
<g id="node6" class="node">
<title>Node6</title>
<g id="a_node6"><a xlink:href="mcman-internal_8h_source.html" target="_top" xlink:title=" ">
<polygon fill="white" stroke="#666666" points="594.5,-96 473.5,-96 473.5,-66 594.5,-66 594.5,-96"/>
<text text-anchor="start" x="481.5" y="-84" font-family="Helvetica,sans-Serif" font-size="10.00">iop/memorycard/mcman</text>
<text text-anchor="middle" x="534" y="-73" font-family="Helvetica,sans-Serif" font-size="10.00">/src/mcman&#45;internal.h</text>
</a>
</g>
</g>
<!-- Node1&#45;&gt;Node6 -->
<g id="edge5" class="edge">
<title>Node1&#45;&gt;Node6</title>
<path fill="none" stroke="#63b8ff" d="M327.25,-132.12C370.7,-121.59 430.27,-107.15 474.3,-96.47"/>
<polygon fill="#63b8ff" stroke="#63b8ff" points="326.65,-128.66 317.76,-134.42 328.3,-135.47 326.65,-128.66"/>
</g>
<!-- Node7 -->
<g id="node7" class="node">
<title>Node7</title>
<g id="a_node7"><a xlink:href="iop_2memorycard_2mcman_2src_2main_8c_source.html" target="_top" xlink:title=" ">
<polygon fill="white" stroke="#666666" points="316.5,-30 195.5,-30 195.5,0 316.5,0 316.5,-30"/>
<text text-anchor="start" x="203.5" y="-18" font-family="Helvetica,sans-Serif" font-size="10.00">iop/memorycard/mcman</text>
<text text-anchor="middle" x="256" y="-7" font-family="Helvetica,sans-Serif" font-size="10.00">/src/main.c</text>
</a>
</g>
</g>
<!-- Node6&#45;&gt;Node7 -->
<g id="edge6" class="edge">
<title>Node6&#45;&gt;Node7</title>
<path fill="none" stroke="#63b8ff" d="M462.14,-63.46C416.97,-53.06 359.36,-39.8 316.54,-29.94"/>
<polygon fill="#63b8ff" stroke="#63b8ff" points="461.33,-66.86 471.86,-65.69 462.9,-60.04 461.33,-66.86"/>
</g>
<!-- Node8 -->
<g id="node8" class="node">
<title>Node8</title>
<g id="a_node8"><a xlink:href="mcdev_8c_source.html" target="_top" xlink:title=" ">
<polygon fill="white" stroke="#666666" points="455.5,-30 334.5,-30 334.5,0 455.5,0 455.5,-30"/>
<text text-anchor="start" x="342.5" y="-18" font-family="Helvetica,sans-Serif" font-size="10.00">iop/memorycard/mcman</text>
<text text-anchor="middle" x="395" y="-7" font-family="Helvetica,sans-Serif" font-size="10.00">/src/mcdev.c</text>
</a>
</g>
</g>
<!-- Node6&#45;&gt;Node8 -->
<g id="edge7" class="edge">
<title>Node6&#45;&gt;Node8</title>
<path fill="none" stroke="#63b8ff" d="M492.42,-60.86C471.13,-51.05 445.65,-39.32 426.09,-30.31"/>
<polygon fill="#63b8ff" stroke="#63b8ff" points="490.88,-64 501.43,-65 493.81,-57.64 490.88,-64"/>
</g>
<!-- Node9 -->
<g id="node9" class="node">
<title>Node9</title>
<g id="a_node9"><a xlink:href="mcsio2_8c_source.html" target="_top" xlink:title=" ">
<polygon fill="white" stroke="#666666" points="594.5,-30 473.5,-30 473.5,0 594.5,0 594.5,-30"/>
<text text-anchor="start" x="481.5" y="-18" font-family="Helvetica,sans-Serif" font-size="10.00">iop/memorycard/mcman</text>
<text text-anchor="middle" x="534" y="-7" font-family="Helvetica,sans-Serif" font-size="10.00">/src/mcsio2.c</text>
</a>
</g>
</g>
<!-- Node6&#45;&gt;Node9 -->
<g id="edge8" class="edge">
<title>Node6&#45;&gt;Node9</title>
<path fill="none" stroke="#63b8ff" d="M534,-54.39C534,-46.13 534,-37.28 534,-30.16"/>
<polygon fill="#63b8ff" stroke="#63b8ff" points="530.5,-54.28 534,-64.28 537.5,-54.28 530.5,-54.28"/>
</g>
<!-- Node10 -->
<g id="node10" class="node">
<title>Node10</title>
<g id="a_node10"><a xlink:href="ps1mc__fio_8c_source.html" target="_top" xlink:title=" ">
<polygon fill="white" stroke="#666666" points="733.5,-30 612.5,-30 612.5,0 733.5,0 733.5,-30"/>
<text text-anchor="start" x="620.5" y="-18" font-family="Helvetica,sans-Serif" font-size="10.00">iop/memorycard/mcman</text>
<text text-anchor="middle" x="673" y="-7" font-family="Helvetica,sans-Serif" font-size="10.00">/src/ps1mc_fio.c</text>
</a>
</g>
</g>
<!-- Node6&#45;&gt;Node10 -->
<g id="edge9" class="edge">
<title>Node6&#45;&gt;Node10</title>
<path fill="none" stroke="#63b8ff" d="M575.58,-60.86C596.87,-51.05 622.35,-39.32 641.91,-30.31"/>
<polygon fill="#63b8ff" stroke="#63b8ff" points="574.19,-57.64 566.57,-65 577.12,-64 574.19,-57.64"/>
</g>
<!-- Node11 -->
<g id="node11" class="node">
<title>Node11</title>
<g id="a_node11"><a xlink:href="ps2mc__fio_8c_source.html" target="_top" xlink:title=" ">
<polygon fill="white" stroke="#666666" points="872.5,-30 751.5,-30 751.5,0 872.5,0 872.5,-30"/>
<text text-anchor="start" x="759.5" y="-18" font-family="Helvetica,sans-Serif" font-size="10.00">iop/memorycard/mcman</text>
<text text-anchor="middle" x="812" y="-7" font-family="Helvetica,sans-Serif" font-size="10.00">/src/ps2mc_fio.c</text>
</a>
</g>
</g>
<!-- Node6&#45;&gt;Node11 -->
<g id="edge10" class="edge">
<title>Node6&#45;&gt;Node11</title>
<path fill="none" stroke="#63b8ff" d="M605.86,-63.46C651.03,-53.06 708.64,-39.8 751.46,-29.94"/>
<polygon fill="#63b8ff" stroke="#63b8ff" points="605.1,-60.04 596.14,-65.69 606.67,-66.86 605.1,-60.04"/>
</g>
</g>
</svg>
